<?xml version="1.0" encoding="utf-8"?>
<!-- Generator: Adobe Illustrator 16.0.0, SVG Export Plug-In . SVG Version: 6.00 Build 0)  -->
<!DOCTYPE svg PUBLIC "-//W3C//DTD SVG 1.1//EN" "http://www.w3.org/Graphics/SVG/1.1/DTD/svg11.dtd">
<svg version="1.1" id="Layer_1" xmlns="http://www.w3.org/2000/svg" xmlns:xlink="http://www.w3.org/1999/xlink" x="0px" y="0px"
	 width="328.333px" height="235.088px" viewBox="0 0 328.333 235.088" enable-background="new 0 0 328.333 235.088"
	 xml:space="preserve">
<g>
	<path d="M87.65,147.707c0,20.604-16.07,33.51-48.207,38.717c-2.016,0.336-3.164-0.477-3.443-2.436
		c-0.168-1.4,0.084-2.352,0.756-2.855c0.504-0.449,1.791-0.924,3.863-1.428c10.693-2.464,18.561-5.684,23.6-9.658
		c5.711-4.535,8.566-10.611,8.566-18.225c0-5.039-1.792-9.014-5.375-11.926c-3.248-2.688-7.335-4.031-12.262-4.031
		c-2.744,0-4.648,0.113-5.711,0.336c-1.568,0.336-2.66-0.475-3.275-2.436c-0.561-1.735,0.139-3.051,2.1-3.947
		c16.012-7.391,24.02-15.061,24.02-23.012c0-6.998-3.724-10.498-11.17-10.498c-5.992,0-11.73,1.541-17.217,4.619
		c-1.68,0.953-3.22,0.617-4.619-1.008c-0.561-0.672-0.84-1.231-0.84-1.68c0-0.783,0.811-1.764,2.436-2.939
		c7.223-5.43,15.172-8.146,23.852-8.146c15.172,0,22.76,5.627,22.76,16.881c0,9.351-7.419,17.385-22.256,24.104
		c6.662-0.279,12.065,1.344,16.209,4.871C85.578,136.537,87.65,141.437,87.65,147.707z"/>
	<path d="M172.559,124.359c0,10.191-3.262,18.519-9.784,24.985c-6.523,6.467-14.823,9.7-24.901,9.7s-18.197-3.331-24.355-9.994
		c-6.496-7.11-9.742-16.965-9.742-29.562c0-16.852,5.598-31.717,16.797-44.596c10.078-11.59,23.067-19.932,38.969-25.027
		c1.567-0.504,2.575-0.111,3.023,1.176c0.727,2.016-0.168,3.695-2.688,5.039c-21.781,11.311-34.686,25.98-38.717,44.008
		c5.094-5.262,12.205-7.895,21.332-7.895c8.734,0,15.9,2.912,21.5,8.734C169.703,106.919,172.559,114.729,172.559,124.359z
		 M157.609,125.871c0-7.614-1.652-13.829-4.955-18.645c-3.527-5.094-8.343-7.643-14.445-7.643c-6.16,0-11.031,2.296-14.613,6.887
		c-3.584,4.592-5.375,10.834-5.375,18.729c0,7.951,1.806,14.319,5.417,19.106s8.468,7.181,14.571,7.181
		c6.215,0,11.002-2.295,14.361-6.887C155.93,140.009,157.609,133.765,157.609,125.871z"/>
	<path d="M254.611,122.427c0,10.527-3.137,19.121-9.406,25.783c-6.439,6.887-14.949,10.33-25.531,10.33
		c-9.799,0-17.918-3.205-24.355-9.616c-6.439-6.41-9.658-14.487-9.658-24.229c0-10.918,3.471-19.736,10.414-26.455
		c6.605-6.326,14.836-9.49,24.691-9.49c9.965,0,18.099,3.122,24.397,9.364C251.462,104.357,254.611,112.462,254.611,122.427z
		 M239.662,124.023c0-8.51-1.722-15.256-5.165-20.24c-3.443-4.982-8.134-7.475-14.067-7.475c-6.496,0-11.506,2.52-15.033,7.559
		c-3.305,4.703-4.955,11.059-4.955,19.064c0,9.07,1.777,16.014,5.333,20.828c3.555,4.816,8.44,7.223,14.655,7.223
		c5.99,0,10.693-2.31,14.109-6.929C237.953,139.434,239.662,132.757,239.662,124.023z"/>
</g>
<g>
	<path d="M130.573,180.179c0,0.405-0.297,0.652-0.892,0.74c-0.834,0.126-1.322,0.215-1.46,0.266c-0.456,0.189-0.683,0.557-0.683,1.1
		v5.938c0,0.746-0.974,1.543-2.921,2.39c-2.188,0.948-4.648,1.423-7.38,1.423c-3.971,0-7.278-1.183-9.921-3.548
		c-2.681-2.402-4.022-5.482-4.022-9.238c0-3.832,1.385-7.02,4.155-9.562c2.681-2.453,5.906-3.68,9.675-3.68
		c2.896,0,5.356,0.348,7.38,1.043c1.492,0.506,2.27,1.012,2.333,1.518c0.126,0.961,0.19,2.384,0.19,4.269
		c0,0.417-0.259,0.639-0.778,0.664c-0.607,0.025-0.98-0.146-1.119-0.512c-0.696-1.885-1.673-3.241-2.931-4.069
		c-1.258-0.828-2.988-1.243-5.188-1.243c-3.035,0-5.406,0.93-7.114,2.789c-1.758,1.935-2.637,4.705-2.637,8.309
		c0,3.479,1.012,6.279,3.036,8.404c1.96,2.074,4.483,3.111,7.569,3.111c1.581,0,3.054-0.284,4.42-0.854
		c1.302-0.543,1.954-1.094,1.954-1.65v-3.946c0-0.936-0.19-1.613-0.569-2.03c-0.329-0.379-0.98-0.714-1.954-1.006
		c-0.721-0.215-1.062-0.474-1.024-0.777c0.05-0.329,0.136-0.531,0.256-0.607c0.12-0.076,0.427-0.082,0.92-0.019
		c2.694,0.329,5.312,0.354,7.854,0.076c0.139-0.013,0.253-0.019,0.341-0.019C130.402,179.458,130.573,179.698,130.573,180.179z"/>
	<path d="M156.98,191.523c0.013,0.291-0.234,0.436-0.74,0.436c-4.541,0-8.828-3.889-12.862-11.667
		c-1.556,0.076-2.384,0.114-2.485,0.114v7.967c0,0.595,0.145,0.99,0.436,1.186c0.291,0.196,0.936,0.37,1.935,0.521
		c0.695,0.114,1.043,0.36,1.043,0.74c0,0.316-0.057,0.512-0.171,0.588c-0.114,0.076-0.43,0.101-0.948,0.076
		c-2.289-0.101-4.787-0.05-7.494,0.152c-0.544,0.038-0.815-0.183-0.815-0.664c0-0.329,0.271-0.519,0.815-0.569
		c1.239-0.126,1.859-0.803,1.859-2.03V170.2c0-1.201-0.702-1.941-2.106-2.219c-0.695-0.139-1.043-0.36-1.043-0.664
		c0-0.468,0.234-0.702,0.702-0.702c0.139,0,0.291,0.013,0.455,0.038c0.519,0.076,1.309,0.114,2.372,0.114
		c0.354,0,1.246-0.019,2.675-0.057c1.429-0.038,2.757-0.057,3.984-0.057c2.529,0,4.527,0.474,5.995,1.423
		c1.644,1.05,2.466,2.599,2.466,4.648c0,3.503-2.024,5.817-6.071,6.943c1.29,2.935,2.808,5.451,4.553,7.55
		c1.783,2.15,3.389,3.339,4.818,3.566C156.746,190.847,156.955,191.093,156.98,191.523z M149.354,173.179
		c0-1.872-0.481-3.206-1.442-4.003c-0.961-0.796-2.498-1.195-4.61-1.195c-0.949,0-1.587,0.13-1.916,0.389
		c-0.329,0.259-0.493,0.819-0.493,1.679v8.935c3.061-0.101,5.261-0.639,6.602-1.613
		C148.734,176.474,149.354,175.076,149.354,173.179z"/>
	<path d="M187.275,178.984c0,3.655-1.354,6.753-4.059,9.295c-2.656,2.504-5.85,3.756-9.581,3.756c-3.921,0-7.177-1.176-9.77-3.529
		c-2.656-2.428-3.984-5.564-3.984-9.409c0-3.718,1.347-6.842,4.041-9.372c2.656-2.479,5.893-3.718,9.713-3.718
		c3.895,0,7.133,1.208,9.713,3.624C185.967,172.085,187.275,175.202,187.275,178.984z M183.426,179.629
		c0-3.681-1.006-6.589-3.018-8.727c-1.935-2.049-4.489-3.073-7.664-3.073c-2.631,0-4.79,0.971-6.479,2.912s-2.533,4.467-2.533,7.579
		c0,3.731,0.98,6.665,2.94,8.802c1.91,2.074,4.502,3.111,7.778,3.111c2.644,0,4.8-0.974,6.469-2.921
		S183.426,182.803,183.426,179.629z"/>
	<path d="M219.792,167.165c0,0.253-0.285,0.449-0.854,0.588c-0.987,0.228-1.613,0.456-1.879,0.683
		c-0.354,0.316-0.531,0.904-0.531,1.764v10.87c0,3.479-0.904,6.159-2.712,8.044c-1.859,1.948-4.554,2.921-8.082,2.921
		c-7.462,0-11.192-3.51-11.192-10.529v-11.382c0-1.201-0.702-1.929-2.105-2.182c-0.481-0.088-0.775-0.171-0.883-0.247
		s-0.161-0.228-0.161-0.456c0-0.392,0.095-0.619,0.285-0.683c0.088-0.038,0.385-0.044,0.892-0.019c3.401,0.177,6.001,0.177,7.797,0
		c0.379-0.038,0.609-0.019,0.692,0.057c0.082,0.076,0.123,0.291,0.123,0.645c0,0.266-0.272,0.462-0.815,0.588
		c-1.062,0.228-1.677,0.392-1.841,0.493c-0.404,0.253-0.606,0.771-0.606,1.556v10.965c0,3.225,0.67,5.59,2.011,7.095
		c1.34,1.505,3.497,2.257,6.469,2.257c5.097,0,7.646-2.934,7.646-8.802v-10.927c0-0.86-0.222-1.486-0.664-1.878
		c-0.354-0.329-0.975-0.569-1.859-0.721c-0.695-0.126-1.043-0.361-1.043-0.702c0-0.392,0.101-0.62,0.303-0.683
		c0.076-0.025,0.373-0.031,0.892-0.019c3.517,0.139,5.938,0.139,7.267,0c0.505-0.051,0.783,0.05,0.834,0.303
		C219.785,166.855,219.792,166.988,219.792,167.165z"/>
	<path d="M252.667,166.899c0,0.316-0.341,0.576-1.024,0.778c-1.518,0.43-2.276,1.309-2.276,2.637v13.64
		c0,2.871,0.038,5.186,0.114,6.943c0.025,0.67-0.133,1.049-0.475,1.138c-0.569,0.139-1.05-0.158-1.441-0.892
		c-0.633-1.202-3.111-4.161-7.437-8.878c-3.617-3.933-7.121-7.607-10.51-11.022c-0.114-0.114-0.228-0.145-0.342-0.095
		c-0.126,0.063-0.189,0.208-0.189,0.437v15.556c0,1.669,0.841,2.663,2.523,2.979c0.695,0.139,1.043,0.386,1.043,0.74
		c0,0.481-0.393,0.702-1.176,0.664c-3.011-0.126-5.351-0.126-7.02,0c-0.544,0.038-0.815-0.183-0.815-0.664
		c0-0.266,0.271-0.456,0.815-0.569c0.974-0.228,1.625-0.537,1.954-0.929c0.328-0.392,0.493-1.056,0.493-1.992V170.58
		c0-0.733-0.151-1.296-0.455-1.688c-0.291-0.354-0.854-0.721-1.688-1.101c-0.62-0.291-0.917-0.588-0.892-0.892
		c0.038-0.341,0.322-0.474,0.854-0.398c1.644,0.228,3.066,0.278,4.269,0.152c0.619-0.063,1.176,0.171,1.669,0.702l15.897,16.94
		c0.215,0.241,0.36,0.36,0.437,0.36c0.101,0,0.151-0.17,0.151-0.512v-13.715c0-1.606-0.841-2.555-2.522-2.846
		c-0.595-0.101-0.892-0.278-0.892-0.531c0-0.531,0.271-0.765,0.815-0.702c2.074,0.228,4.389,0.203,6.943-0.076
		c0.442-0.05,0.727-0.057,0.854-0.019C252.56,166.318,252.667,166.533,252.667,166.899z"/>
	<path d="M283.324,178.547c0,4.401-1.454,7.74-4.363,10.017c-2.719,2.1-6.5,3.149-11.344,3.149c-0.405,0-1.322-0.038-2.751-0.114
		c-1.43-0.076-2.53-0.114-3.301-0.114c-1.037,0-2.188,0.05-3.453,0.152c-0.544,0.05-0.815-0.171-0.815-0.664
		c0-0.329,0.271-0.519,0.815-0.569c1.239-0.126,1.859-0.803,1.859-2.03V170.2c0-0.683-0.14-1.144-0.417-1.385
		c-0.229-0.189-0.728-0.367-1.499-0.531c-0.646-0.126-1.037-0.234-1.176-0.322c-0.14-0.088-0.222-0.278-0.247-0.569
		c-0.038-0.303,0.095-0.5,0.398-0.588c0.063-0.013,0.342-0.038,0.835-0.076c2.719-0.177,6.323-0.265,10.812-0.265
		c4.363,0,7.873,1.05,10.529,3.149C281.952,171.788,283.324,174.766,283.324,178.547z M279.359,179.06
		c0-7.335-3.769-11.003-11.307-11.003h-2.655c-1.392,0.126-2.087,0.512-2.087,1.157v17.604c0,1.24,0.328,2.068,0.986,2.485
		c0.657,0.417,1.973,0.626,3.946,0.626C275.653,189.93,279.359,186.306,279.359,179.06z"/>
</g>
</svg>
